<svg id="visual" viewBox="0 0 900 600" width="900" height="600" xmlns="http://www.w3.org/2000/svg" xmlns:xlink="http://www.w3.org/1999/xlink" version="1.1"><rect x="0" y="0" width="900" height="600" fill="#001220"></rect><defs><linearGradient id="grad1_0" x1="33.3%" y1="100%" x2="100%" y2="0%"><stop offset="20%" stop-color="#b90000" stop-opacity="1"></stop><stop offset="80%" stop-color="#b90000" stop-opacity="1"></stop></linearGradient></defs><defs><linearGradient id="grad1_1" x1="33.3%" y1="100%" x2="100%" y2="0%"><stop offset="20%" stop-color="#b90000" stop-opacity="1"></stop><stop offset="80%" stop-color="#5d1155" stop-opacity="1"></stop></linearGradient></defs><defs><linearGradient id="grad1_2" x1="33.3%" y1="100%" x2="100%" y2="0%"><stop offset="20%" stop-color="#001220" stop-opacity="1"></stop><stop offset="80%" stop-color="#5d1155" stop-opacity="1"></stop></linearGradient></defs><defs><linearGradient id="grad2_0" x1="0%" y1="100%" x2="66.7%" y2="0%"><stop offset="20%" stop-color="#b90000" stop-opacity="1"></stop><stop offset="80%" stop-color="#b90000" stop-opacity="1"></stop></linearGradient></defs><defs><linearGradient id="grad2_1" x1="0%" y1="100%" x2="66.7%" y2="0%"><stop offset="20%" stop-color="#5d1155" stop-opacity="1"></stop><stop offset="80%" stop-color="#b90000" stop-opacity="1"></stop></linearGradient></defs><defs><linearGradient id="grad2_2" x1="0%" y1="100%" x2="66.7%" y2="0%"><stop offset="20%" stop-color="#5d1155" stop-opacity="1"></stop><stop offset="80%" stop-color="#001220" stop-opacity="1"></stop></linearGradient></defs><g transform="translate(900, 600)"><path d="M-459.7 0C-458.5 -40.6 -457.4 -81.1 -444 -119C-430.7 -156.9 -405.2 -192.1 -375 -216.5C-344.8 -240.9 -309.9 -254.6 -285.7 -285.7C-261.4 -316.8 -247.8 -365.3 -216.5 -375C-185.2 -384.7 -136.3 -355.5 -97.3 -363.2C-58.3 -370.8 -29.1 -415.3 0 -459.7L0 0Z" fill="#1d1d46"></path><path d="M-306.5 0C-305.7 -27 -304.9 -54.1 -296 -79.3C-287.1 -104.6 -270.1 -128 -250 -144.3C-229.9 -160.6 -206.6 -169.7 -190.4 -190.4C-174.3 -211.2 -165.2 -243.5 -144.3 -250C-123.5 -256.5 -90.9 -237 -64.9 -242.1C-38.9 -247.2 -19.4 -276.8 0 -306.5L0 0Z" fill="#9a0040"></path><path d="M-153.2 0C-152.8 -13.5 -152.5 -27 -148 -39.7C-143.6 -52.3 -135.1 -64 -125 -72.2C-114.9 -80.3 -103.3 -84.9 -95.2 -95.2C-87.1 -105.6 -82.6 -121.8 -72.2 -125C-61.7 -128.2 -45.4 -118.5 -32.4 -121.1C-19.4 -123.6 -9.7 -138.4 0 -153.2L0 0Z" fill="#b90000"></path></g><g transform="translate(0, 0)"><path d="M459.7 0C428.2 34 396.7 67.9 379.6 101.7C362.5 135.5 359.8 169.2 351.6 203C343.4 236.8 329.7 270.8 311.1 311.1C292.5 351.4 269 398 229.9 398.1C190.7 398.3 135.9 352 95 354.5C54.1 357 27 408.4 0 459.7L0 0Z" fill="#1d1d46"></path><path d="M306.5 0C285.5 22.6 264.5 45.3 253.1 67.8C241.7 90.3 239.9 112.8 234.4 135.3C228.9 157.9 219.8 180.6 207.4 207.4C195 234.3 179.3 265.3 153.2 265.4C127.1 265.5 90.6 234.6 63.3 236.3C36 238 18 272.2 0 306.5L0 0Z" fill="#9a0040"></path><path d="M153.2 0C142.7 11.3 132.2 22.6 126.5 33.9C120.8 45.2 119.9 56.4 117.2 67.7C114.5 78.9 109.9 90.3 103.7 103.7C97.5 117.1 89.7 132.7 76.6 132.7C63.6 132.8 45.3 117.3 31.7 118.2C18 119 9 136.1 0 153.2L0 0Z" fill="#b90000"></path></g></svg>